HIERARCHY
ROOT Hips
{
  OFFSET 5.80788e-005 67.184 3.4734
  CHANNELS 6 Xposition Yposition Zposition Zrotation Xrotation Yrotation
  JOINT Chest
  {
    OFFSET 0 8.7983 -4.7612
    CHANNELS 6 Xposition Yposition Zposition Zrotation Xrotation Yrotation
    JOINT Chest2
    {
      OFFSET 0 8.0291 0.4195
      CHANNELS 6 Xposition Yposition Zposition Zrotation Xrotation Yrotation
      JOINT Chest3
      {
        OFFSET 0 9.9351 -2.2114
        CHANNELS 6 Xposition Yposition Zposition Zrotation Xrotation Yrotation
        JOINT Neck
        {
          OFFSET 0 22.3885 -0.4656
          CHANNELS 6 Xposition Yposition Zposition Zrotation Xrotation Yrotation
          JOINT Head
          {
            OFFSET -0.0001 12.643 3.4389
            CHANNELS 6 Xposition Yposition Zposition Zrotation Xrotation Yrotation
            End Site
            {
              OFFSET 0.0001 17.6655 0.5274
            }
          }
        }
        JOINT LeftCollar
        {
          OFFSET 2.2603 21.606 7.4023
          CHANNELS 6 Xposition Yposition Zposition Zrotation Xrotation Yrotation
          JOINT LeftShoulder
          {
            OFFSET 13.5163 -1.1332 -5.0146
            CHANNELS 6 Xposition Yposition Zposition Zrotation Xrotation Yrotation
            JOINT LeftElbow
            {
              OFFSET -0.0995 -28.05 -0.2431
              CHANNELS 6 Xposition Yposition Zposition Zrotation Xrotation Yrotation
              JOINT LeftWrist
              {
                OFFSET 0.0679 -23.3996 -0.1402
                CHANNELS 6 Xposition Yposition Zposition Zrotation Xrotation Yrotation
                JOINT LeftFinger1
                {
                  OFFSET 0.7932 -9.069 2.5189
                  CHANNELS 6 Xposition Yposition Zposition Zrotation Xrotation Yrotation
                  JOINT LeftFinger11
                  {
                    OFFSET -0.8272 -3.3923 0.5977
                    CHANNELS 6 Xposition Yposition Zposition Zrotation Xrotation Yrotation
                    JOINT LeftFinger12
                    {
                      OFFSET -0.5649 -2.3158 0.4082
                      CHANNELS 6 Xposition Yposition Zposition Zrotation Xrotation Yrotation
                      End Site
                      {
                        OFFSET -0.4919 -1.6479 0.2673
                      }
                    }
                  }
                }
                JOINT LeftFinger2
                {
                  OFFSET 0.9159 -9.2044 0.2193
                  CHANNELS 6 Xposition Yposition Zposition Zrotation Xrotation Yrotation
                  JOINT LeftFinger21
                  {
                    OFFSET 0.0117 -4.1944 -0.0248
                    CHANNELS 6 Xposition Yposition Zposition Zrotation Xrotation Yrotation
                    JOINT LeftFinger22
                    {
                      OFFSET 0.0071 -2.3249 -0.0142
                      CHANNELS 6 Xposition Yposition Zposition Zrotation Xrotation Yrotation
                      End Site
                      {
                        OFFSET -0.1475 -2.0882 0.0028
                      }
                    }
                  }
                }
                JOINT LeftFinger3
                {
                  OFFSET 0.6113 -8.7231 -2.0637
                  CHANNELS 6 Xposition Yposition Zposition Zrotation Xrotation Yrotation
                  JOINT LeftFinger31
                  {
                    OFFSET -0.1927 -3.8059 -0.2383
                    CHANNELS 6 Xposition Yposition Zposition Zrotation Xrotation Yrotation
                    JOINT LeftFinger32
                    {
                      OFFSET -0.1091 -2.1688 -0.1362
                      CHANNELS 6 Xposition Yposition Zposition Zrotation Xrotation Yrotation
                      End Site
                      {
                        OFFSET -0.2358 -1.9176 -0.0906
                      }
                    }
                  }
                }
                JOINT LeftFinger4
                {
                  OFFSET -0.6151 -8.0947 -3.5641
                  CHANNELS 6 Xposition Yposition Zposition Zrotation Xrotation Yrotation
                  JOINT LeftFinger41
                  {
                    OFFSET -0.4882 -2.341 -0.6462
                    CHANNELS 6 Xposition Yposition Zposition Zrotation Xrotation Yrotation
                    JOINT LeftFinger42
                    {
                      OFFSET -0.3575 -1.7167 -0.4742
                      CHANNELS 6 Xposition Yposition Zposition Zrotation Xrotation Yrotation
                      End Site
                      {
                        OFFSET -0.4187 -1.5237 -0.3496
                      }
                    }
                  }
                }
                JOINT LeftFinger0
                {
                  OFFSET -1.42 -1.8761 1.4223
                  CHANNELS 6 Xposition Yposition Zposition Zrotation Xrotation Yrotation
                  JOINT LeftFinger01
                  {
                    OFFSET -1.1471 -3.4929 2.6334
                    CHANNELS 6 Xposition Yposition Zposition Zrotation Xrotation Yrotation
                    JOINT LeftFinger02
                    {
                      OFFSET -0.823 -2.3 1.6571
                      CHANNELS 6 Xposition Yposition Zposition Zrotation Xrotation Yrotation
                      End Site
                      {
                        OFFSET -0.5822 -1.6914 1.1582
                      }
                    }
                  }
                }
              }
            }
          }
        }
        JOINT RightCollar
        {
          OFFSET -2.2603 21.606 7.4023
          CHANNELS 6 Xposition Yposition Zposition Zrotation Xrotation Yrotation
          JOINT RightShoulder
          {
            OFFSET -13.5187 -1.1334 -5.0155
            CHANNELS 6 Xposition Yposition Zposition Zrotation Xrotation Yrotation
            JOINT RightElbow
            {
              OFFSET 0.0994 -28.0499 -0.2431
              CHANNELS 6 Xposition Yposition Zposition Zrotation Xrotation Yrotation
              JOINT RightWrist
              {
                OFFSET -0.0679 -23.3996 -0.1402
                CHANNELS 6 Xposition Yposition Zposition Zrotation Xrotation Yrotation
                JOINT RightFinger1
                {
                  OFFSET -0.7932 -9.0691 2.5189
                  CHANNELS 6 Xposition Yposition Zposition Zrotation Xrotation Yrotation
                  JOINT RightFinger11
                  {
                    OFFSET 0.8272 -3.3923 0.5977
                    CHANNELS 6 Xposition Yposition Zposition Zrotation Xrotation Yrotation
                    JOINT RightFinger12
                    {
                      OFFSET 0.565 -2.3158 0.4082
                      CHANNELS 6 Xposition Yposition Zposition Zrotation Xrotation Yrotation
                      End Site
                      {
                        OFFSET 0.4919 -1.6479 0.2673
                      }
                    }
                  }
                }
                JOINT RightFinger2
                {
                  OFFSET -0.916 -9.2044 0.2193
                  CHANNELS 6 Xposition Yposition Zposition Zrotation Xrotation Yrotation
                  JOINT RightFinger21
                  {
                    OFFSET -0.0117 -4.1944 -0.0248
                    CHANNELS 6 Xposition Yposition Zposition Zrotation Xrotation Yrotation
                    JOINT RightFinger22
                    {
                      OFFSET -0.0071 -2.3249 -0.0142
                      CHANNELS 6 Xposition Yposition Zposition Zrotation Xrotation Yrotation
                      End Site
                      {
                        OFFSET 0.1475 -2.0882 0.0028
                      }
                    }
                  }
                }
                JOINT RightFinger3
                {
                  OFFSET -0.6113 -8.7231 -2.0637
                  CHANNELS 6 Xposition Yposition Zposition Zrotation Xrotation Yrotation
                  JOINT RightFinger31
                  {
                    OFFSET 0.1927 -3.8059 -0.2383
                    CHANNELS 6 Xposition Yposition Zposition Zrotation Xrotation Yrotation
                    JOINT RightFinger32
                    {
                      OFFSET 0.1091 -2.1688 -0.1362
                      CHANNELS 6 Xposition Yposition Zposition Zrotation Xrotation Yrotation
                      End Site
                      {
                        OFFSET 0.2358 -1.9176 -0.0906
                      }
                    }
                  }
                }
                JOINT RightFinger4
                {
                  OFFSET 0.6151 -8.0947 -3.564
                  CHANNELS 6 Xposition Yposition Zposition Zrotation Xrotation Yrotation
                  JOINT RightFinger41
                  {
                    OFFSET 0.4882 -2.341 -0.6462
                    CHANNELS 6 Xposition Yposition Zposition Zrotation Xrotation Yrotation
                    JOINT RightFinger42
                    {
                      OFFSET 0.3574 -1.7166 -0.4742
                      CHANNELS 6 Xposition Yposition Zposition Zrotation Xrotation Yrotation
                      End Site
                      {
                        OFFSET 0.4187 -1.5237 -0.3496
                      }
                    }
                  }
                }
                JOINT RightFinger0
                {
                  OFFSET 1.4199 -1.8761 1.4221
                  CHANNELS 6 Xposition Yposition Zposition Zrotation Xrotation Yrotation
                  JOINT RightFinger01
                  {
                    OFFSET 1.1472 -3.4929 2.6336
                    CHANNELS 6 Xposition Yposition Zposition Zrotation Xrotation Yrotation
                    JOINT RightFinger02
                    {
                      OFFSET 0.8229 -2.3 1.6571
                      CHANNELS 6 Xposition Yposition Zposition Zrotation Xrotation Yrotation
                      End Site
                      {
                        OFFSET 0.5822 -1.6914 1.1582
                      }
                    }
                  }
                }
              }
            }
          }
        }
      }
    }
  }
  JOINT RightHip
  {
    OFFSET -9.412 3.9771 -0.7758
    CHANNELS 6 Xposition Yposition Zposition Zrotation Xrotation Yrotation
    JOINT RightKnee
    {
      OFFSET -0.7531 -40.938 0
      CHANNELS 6 Xposition Yposition Zposition Zrotation Xrotation Yrotation
      JOINT RightAnkle
      {
        OFFSET 0 -40.1986 0
        CHANNELS 6 Xposition Yposition Zposition Zrotation Xrotation Yrotation
        JOINT RightToe
        {
          OFFSET 0 -4.4182 9.239
          CHANNELS 6 Xposition Yposition Zposition Zrotation Xrotation Yrotation
          End Site
          {
            OFFSET 0 0 6.1981
          }
        }
      }
    }
  }
  JOINT LeftHip
  {
    OFFSET 9.4119 3.9773 -0.7758
    CHANNELS 6 Xposition Yposition Zposition Zrotation Xrotation Yrotation
    JOINT LeftKnee
    {
      OFFSET 0.7532 -40.9383 0
      CHANNELS 6 Xposition Yposition Zposition Zrotation Xrotation Yrotation
      JOINT LeftAnkle
      {
        OFFSET 0 -40.1986 0
        CHANNELS 6 Xposition Yposition Zposition Zrotation Xrotation Yrotation
        JOINT LeftToe
        {
          OFFSET 0 -4.4182 9.239
          CHANNELS 6 Xposition Yposition Zposition Zrotation Xrotation Yrotation
          End Site
          {
            OFFSET 0 0 6.1981
          }
        }
      }
    }
  }
}
MOTION
Frames:	4
Frame Time:	0.0333333
-0.00046789 0.0268631 -47.6511 -180 -89.9981 -180 0 8.7983 -4.7612 -0.0639237 8.82268 -0.107515 0 8.0291 0.4195 -0.112905 17.6455 -0.208716 5.55112e-017 9.9351 -2.2114 -0.112906 17.6455 -0.208716 -1.11022e-016 22.3885 -0.4656 1.24076e-006 -13.6443 1.48221e-006 -0.0001 12.643 3.4389 5.61591e-008 -36.0636 6.92363e-008 2.2603 21.606 7.4023 1.17564 -0.342057 -4.2062 13.5163 -1.1332 -5.0146 2.58279 33.5598 25.6082 -0.0995 -28.05 -0.2431 -33.0118 -71.2406 -59.9046 0.0679 -23.3996 -0.1402 -5.51328 1.60428 -23.3902 0.7932 -9.069 2.5189 1.32649e-006 5.90435e-007 2.46777e-006 -0.8272 -3.3923 0.5977 5.96354e-016 -6.36111e-015 1.21259e-014 -0.5649 -2.3158 0.4082 5.11202e-006 -6.80778e-006 -7.07248e-006 0.9159 -9.2044 0.2193 1.32649e-006 5.90435e-007 2.46777e-006 0.0117 -4.1944 -0.0248 -0.012803 0.00231917 8.18795e-005 0.0071 -2.3249 -0.0142 -1.67304e-006 1.44614e-006 -3.37539e-007 0.6113 -8.7231 -2.0637 1.32649e-006 5.90435e-007 2.46777e-006 -0.1927 -3.8059 -0.2383 -0.0160479 0.00298846 0.000858602 -0.1091 -2.1688 -0.1362 2.86453e-006 1.77367e-007 1.5793e-006 -0.6151 -8.0947 -3.5641 1.32649e-006 5.90435e-007 2.46777e-006 -0.4882 -2.341 -0.6462 -0.0126289 0.00311663 0.00283714 -0.3575 -1.7167 -0.4742 2.84965e-006 -5.90661e-006 -4.82711e-006 -1.42 -1.8761 1.4223 1.32649e-006 5.90435e-007 2.46777e-006 -1.1471 -3.4929 2.6334 5.96354e-016 -6.36111e-015 1.21259e-014 -0.823 -2.3 1.6571 5.11202e-006 -6.80778e-006 -7.07248e-006 -2.2603 21.606 7.4023 -1.95156 -0.0677282 -1.26814 -13.5187 -1.1334 -5.0155 -6.01085 34.4023 -18.6421 0.0994 -28.0499 -0.2431 30.5739 -72.5617 56.9211 -0.0679 -23.3996 -0.1402 5.09018 1.10621 23.5398 -0.7932 -9.0691 2.5189 -1.83387e-006 1.42462e-006 -5.856e-006 0.8272 -3.3923 0.5977 3.57223e-007 -2.01117e-006 -2.15156e-006 0.565 -2.3158 0.4082 -7.75293e-006 -5.39023e-006 1.31374e-006 -0.916 -9.2044 0.2193 -1.83387e-006 1.42462e-006 -5.856e-006 -0.0117 -4.1944 -0.0248 0.0129456 0.00230015 -8.38494e-005 -0.0071 -2.3249 -0.0142 -8.84941e-006 -7.40859e-006 5.99448e-006 -0.6113 -8.7231 -2.0637 -1.83387e-006 1.42462e-006 -5.856e-006 0.1927 -3.8059 -0.2383 0.0163535 0.003044 -0.000874438 0.1091 -2.1688 -0.1362 -1.29926e-006 -2.7113e-007 -2.55012e-006 0.6151 -8.0947 -3.564 -1.83387e-006 1.42462e-006 -5.856e-006 0.4882 -2.341 -0.6462 0.0146241 0.003685 -0.00327341 0.3574 -1.7166 -0.4742 3.97569e-016 3.18055e-015 -1.33186e-014 1.4199 -1.8761 1.4221 -1.83387e-006 1.42462e-006 -5.856e-006 1.1472 -3.4929 2.6336 3.57223e-007 -2.01117e-006 -2.15156e-006 0.8229 -2.3 1.6571 -7.75293e-006 -5.39023e-006 1.31374e-006 -9.412 3.9771 -0.7758 -16.6923 2.68597 -1.06109 -0.7531 -40.938 0 1.92974 8.17229 -0.584448 0 -40.1986 8.88178e-016 -8.70717 12.4947 -0.988583 0 -4.4182 9.239 2.19485e-006 -5.39627e-007 2.78755e-006 9.4119 3.9773 -0.7758 16.6122 2.43776 1.07109 0.7532 -40.9383 0 -1.90247 8.36496 0.579462 0 -40.1986 2.66454e-015 8.70231 12.4556 0.990239 0 -4.4182 9.239 1.74376e-006 4.31101e-006 -3.10992e-006 
-0.00119545 0.0260391 -47.6512 -180 -89.9981 -180 0 8.7983 -4.7612 -0.0657607 9.22058 -0.106138 -1.38778e-017 8.0291 0.4195 -0.116258 18.4413 -0.205469 0 9.9351 -2.2114 -0.116258 18.4414 -0.20547 0 22.3885 -0.4656 1.27239e-006 -14.4441 1.30335e-006 -0.0001 12.643 3.4389 -3.65133e-008 -37.1956 -1.05116e-007 2.2603 21.606 7.4023 2.02654 -1.51165 -4.66031 13.5163 -1.1332 -5.0146 1.84762 33.503 25.9225 -0.0995 -28.05 -0.2431 -34.0182 -71.1696 -60.8702 0.0679 -23.3996 -0.1402 -4.92095 1.20061 -22.8659 0.7932 -9.069 2.5189 -3.57812e-015 1.59028e-015 6.4605e-016 -0.8272 -3.3923 0.5977 -7.95139e-016 0 7.95139e-016 -0.5649 -2.3158 0.4082 -1.59028e-015 0 3.67752e-015 0.9159 -9.2044 0.2193 -3.57812e-015 1.59028e-015 6.4605e-016 0.0117 -4.1944 -0.0248 -0.0128193 0.00234249 8.22779e-005 0.0071 -2.3249 -0.0142 -2.36437e-006 -3.35531e-006 3.9212e-006 0.6113 -8.7231 -2.0637 -3.57812e-015 1.59028e-015 6.4605e-016 -0.1927 -3.8059 -0.2383 -0.0160534 0.00300062 0.000857694 -0.1091 -2.1688 -0.1362 -1.31038e-031 -1.59028e-015 -4.72114e-015 -0.6151 -8.0947 -3.5641 -3.57812e-015 1.59028e-015 6.4605e-016 -0.4882 -2.341 -0.6462 -0.0125954 0.00312229 0.00283668 -0.3575 -1.7167 -0.4742 -7.95139e-016 0 1.22253e-014 -1.42 -1.8761 1.4223 -3.57812e-015 1.59028e-015 6.4605e-016 -1.1471 -3.4929 2.6334 -7.95139e-016 0 7.95139e-016 -0.823 -2.3 1.6571 -1.59028e-015 0 3.67752e-015 -2.2603 21.606 7.4023 -2.71442 -1.26565 -0.835785 -13.5187 -1.1334 -5.0155 -5.32013 34.4182 -18.9321 0.0994 -28.0499 -0.2431 31.6091 -72.5104 57.9207 -0.0679 -23.3996 -0.1402 4.51323 0.726149 22.9907 -0.7932 -9.0691 2.5189 9.37481e-007 -3.01366e-006 -1.01372e-005 0.8272 -3.3923 0.5977 3.97569e-016 1.59028e-015 -8.94531e-016 0.565 -2.3158 0.4082 -3.97569e-016 1.59028e-015 6.4605e-015 -0.916 -9.2044 0.2193 9.37481e-007 -3.01366e-006 -1.01372e-005 -0.0117 -4.1944 -0.0248 0.012977 0.00231757 -7.91404e-005 -0.0071 -2.3249 -0.0142 1.59028e-015 -1.59028e-015 4.07509e-015 -0.6113 -8.7231 -2.0637 9.37481e-007 -3.01366e-006 -1.01372e-005 0.1927 -3.8059 -0.2383 0.0163206 0.00303855 -0.000858864 0.1091 -2.1688 -0.1362 -7.95139e-016 -1.59028e-015 -1.88845e-015 0.6151 -8.0947 -3.564 9.37481e-007 -3.01366e-006 -1.01372e-005 0.4882 -2.341 -0.6462 0.014578 0.00367856 -0.00325137 0.3574 -1.7166 -0.4742 3.97569e-016 3.79357e-007 -1.13307e-014 1.4199 -1.8761 1.4221 9.37481e-007 -3.01366e-006 -1.01372e-005 1.1472 -3.4929 2.6336 3.97569e-016 1.59028e-015 -8.94531e-016 0.8229 -2.3 1.6571 -3.97569e-016 1.59028e-015 6.4605e-015 -9.412 3.9771 -0.7758 -16.6954 2.60727 -1.07368 -0.7531 -40.938 -4.44089e-016 1.82577 8.67988 -0.575225 3.55271e-015 -40.1986 2.66454e-015 -8.70289 12.4058 -1.00039 0 -4.4182 9.239 3.44371e-007 3.79473e-007 -7.8112e-007 9.4119 3.9773 -0.7758 16.5005 1.99535 1.10336 0.7532 -40.9383 2.22045e-016 -1.75238 9.14534 0.56606 0 -40.1986 0 8.69535 12.3163 1.00875 3.55272e-015 -4.4182 9.239 9.03356e-006 -2.48096e-005 5.53302e-006 
-0.00192313 0.0252075 -47.6513 -180 -89.9981 -180 0 8.7983 -4.7612 -0.0676169 9.62071 -0.104713 0 8.0291 0.4195 -0.119692 19.2415 -0.202093 0 9.9351 -2.2114 -0.119692 19.2416 -0.202093 0 22.3885 -0.4656 2.11369e-006 -15.2426 2.50907e-006 -0.0001 12.643 3.4389 -4.05556e-007 -38.3239 -3.69069e-007 2.2603 21.606 7.4023 2.86975 -2.68923 -5.09783 13.5163 -1.1332 -5.0146 1.11323 33.4428 26.2357 -0.0995 -28.05 -0.2431 -35.0169 -71.0933 -61.8281 0.0679 -23.3996 -0.1402 -4.32478 0.802257 -22.3373 0.7932 -9.069 2.5189 -3.97569e-016 6.36111e-015 -1.14301e-015 -0.8272 -3.3923 0.5977 1.19271e-015 4.77083e-015 -9.93923e-016 -0.5649 -2.3158 0.4082 3.97569e-016 4.77083e-015 -7.45443e-015 0.9159 -9.2044 0.2193 -3.97569e-016 6.36111e-015 -1.14301e-015 0.0117 -4.1944 -0.0248 -0.0128356 0.00232768 8.19479e-005 0.0071 -2.3249 -0.0142 -7.95139e-016 1.59028e-015 -1.42131e-014 0.6113 -8.7231 -2.0637 -3.97569e-016 6.36111e-015 -1.14301e-015 -0.1927 -3.8059 -0.2383 -0.0160655 0.00299993 0.000854198 -0.1091 -2.1688 -0.1362 -1.59028e-015 3.18055e-015 -7.60351e-015 -0.6151 -8.0947 -3.5641 -3.97569e-016 6.36111e-015 -1.14301e-015 -0.4882 -2.341 -0.6462 -0.0126189 0.00313533 0.0028305 -0.3575 -1.7167 -0.4742 -0 0 4.07509e-015 -1.42 -1.8761 1.4223 -3.97569e-016 6.36111e-015 -1.14301e-015 -1.1471 -3.4929 2.6334 1.19271e-015 4.77083e-015 -9.93923e-016 -0.823 -2.3 1.6571 3.97569e-016 4.77083e-015 -7.45443e-015 -2.2603 21.606 7.4023 -3.46959 -2.47058 -0.418681 -13.5187 -1.1334 -5.0155 -4.62905 34.4312 -19.2225 0.0994 -28.0499 -0.2431 32.638 -72.4536 58.9142 -0.0679 -23.3996 -0.1402 3.93248 0.351548 22.4376 -0.7932 -9.0691 2.5189 5.08442e-006 -2.07842e-006 4.88758e-006 0.8272 -3.3923 0.5977 6.1146e-006 2.66999e-006 -1.69947e-006 0.565 -2.3158 0.4082 1.98785e-015 1.59028e-015 -3.67752e-015 -0.916 -9.2044 0.2193 5.08442e-006 -2.07842e-006 4.88758e-006 -0.0117 -4.1944 -0.0248 0.0129483 0.0023183 -9.65467e-005 -0.0071 -2.3249 -0.0142 -7.21907e-006 -7.27643e-006 6.3782e-006 -0.6113 -8.7231 -2.0637 5.08442e-006 -2.07842e-006 4.88758e-006 0.1927 -3.8059 -0.2383 0.0163152 0.00301573 -0.000871055 0.1091 -2.1688 -0.1362 -1.59028e-015 4.65515e-007 -3.67752e-015 0.6151 -8.0947 -3.564 5.08442e-006 -2.07842e-006 4.88758e-006 0.4882 -2.341 -0.6462 0.0145557 0.0036813 -0.0032539 0.3574 -1.7166 -0.4742 -3.5504e-006 -9.48924e-006 5.02983e-006 1.4199 -1.8761 1.4221 5.08442e-006 -2.07842e-006 4.88758e-006 1.1472 -3.4929 2.6336 6.1146e-006 2.66999e-006 -1.69947e-006 0.8229 -2.3 1.6571 1.98785e-015 1.59028e-015 -3.67752e-015 -9.412 3.9771 -0.7758 -16.6985 2.53287 -1.08613 -0.7531 -40.938 0 1.7215 9.1788 -0.564612 3.55271e-015 -40.1986 -8.88179e-016 -8.69871 12.3213 -1.01195 0 -4.4182 9.239 1.80746e-006 3.05121e-007 3.59268e-006 9.4119 3.9773 -0.7758 16.3888 1.56256 1.13469 0.7532 -40.9383 0 -1.6017 9.90636 0.54965 0 -40.1986 -4.44089e-016 8.6887 12.1867 1.02673 3.55271e-015 -4.4182 9.239 -1.14833e-006 -2.14456e-006 -5.14452e-006 
-0.00265167 0.0243835 -47.6514 -180 -89.9981 -180 0 8.7983 -4.7612 -0.0694903 10.0223 -0.103239 1.38778e-017 8.0291 0.4195 -0.123207 20.0448 -0.198586 -5.55112e-017 9.9351 -2.2114 -0.123207 20.0448 -0.198586 0 22.3885 -0.4656 2.12978e-006 -16.0398 2.13372e-006 -0.0001 12.643 3.4389 2.32852e-007 -39.4482 -1.07482e-008 2.2603 21.606 7.4023 3.70562 -3.87404 -5.51879 13.5163 -1.1332 -5.0146 0.379714 33.3793 26.5478 -0.0995 -28.05 -0.2431 -36.0077 -71.0116 -62.7781 0.0679 -23.3996 -0.1402 -3.72484 0.409299 -21.8044 0.7932 -9.069 2.5189 3.57812e-015 3.18055e-015 3.08116e-015 -0.8272 -3.3923 0.5977 -1.19271e-015 0 -6.5102e-015 -0.5649 -2.3158 0.4082 3.97569e-016 3.18055e-015 6.55989e-015 0.9159 -9.2044 0.2193 3.57812e-015 3.18055e-015 3.08116e-015 0.0117 -4.1944 -0.0248 -0.0128262 0.0023254 8.44446e-005 0.0071 -2.3249 -0.0142 5.01586e-006 2.75442e-006 1.02622e-006 0.6113 -8.7231 -2.0637 3.57812e-015 3.18055e-015 3.08116e-015 -0.1927 -3.8059 -0.2383 -0.016061 0.00300517 0.000858572 -0.1091 -2.1688 -0.1362 4.67059e-006 2.62548e-006 3.15601e-006 -0.6151 -8.0947 -3.5641 3.57812e-015 3.18055e-015 3.08116e-015 -0.4882 -2.341 -0.6462 -0.0125778 0.00311008 0.00282549 -0.3575 -1.7167 -0.4742 2.78299e-015 1.11319e-014 -4.96962e-017 -1.42 -1.8761 1.4223 3.57812e-015 3.18055e-015 3.08116e-015 -1.1471 -3.4929 2.6334 -1.19271e-015 0 -6.5102e-015 -0.823 -2.3 1.6571 3.97569e-016 3.18055e-015 6.55989e-015 -2.2603 21.606 7.4023 -4.21739 -3.68179 -0.0167372 -13.5187 -1.1334 -5.0155 -3.93768 34.4414 -19.5131 0.0994 -28.0499 -0.2431 33.6602 -72.3917 59.9009 -0.0679 -23.3996 -0.1402 3.34801 -0.0175268 21.8806 -0.7932 -9.0691 2.5189 1.656e-006 -5.59934e-007 4.02705e-007 0.8272 -3.3923 0.5977 2.70825e-006 1.03169e-006 8.79059e-006 0.565 -2.3158 0.4082 -3.97569e-016 -1.59028e-015 -1.39149e-015 -0.916 -9.2044 0.2193 1.656e-006 -5.59934e-007 4.02705e-007 -0.0117 -4.1944 -0.0248 0.0129594 0.00232181 -9.05908e-005 -0.0071 -2.3249 -0.0142 9.93607e-006 4.50868e-006 2.41663e-006 -0.6113 -8.7231 -2.0637 1.656e-006 -5.59934e-007 4.02705e-007 0.1927 -3.8059 -0.2383 0.0163298 0.00304685 -0.000873071 0.1091 -2.1688 -0.1362 6.62405e-006 -2.32781e-006 1.61116e-006 0.6151 -8.0947 -3.564 1.656e-006 -5.59934e-007 4.02705e-007 0.4882 -2.341 -0.6462 0.0146034 0.00369191 -0.00326054 0.3574 -1.7166 -0.4742 6.51486e-006 9.32445e-006 -2.07168e-006 1.4199 -1.8761 1.4221 1.656e-006 -5.59934e-007 4.02705e-007 1.1472 -3.4929 2.6336 2.70825e-006 1.03169e-006 8.79059e-006 0.8229 -2.3 1.6571 -3.97569e-016 -1.59028e-015 -1.39149e-015 -9.412 3.9771 -0.7758 -16.7015 2.46229 -1.09842 -0.7531 -40.938 0 1.61693 9.66987 -0.552731 3.55271e-015 -40.1986 0 -8.69468 12.2409 -1.0233 3.55271e-015 -4.4182 9.239 -3.53512e-007 -9.15779e-008 7.77056e-007 9.4119 3.9773 -0.7758 16.2771 1.13726 1.16507 0.7532 -40.9383 -2.22045e-016 -1.45024 10.652 0.530493 -3.55271e-015 -40.1986 -1.77636e-015 8.68226 12.065 1.04432 0 -4.4182 9.239 -2.51597e-006 -5.20928e-007 -2.02832e-006 
